<svg width="200" height="200" viewBox="0 0 200 200" version="1.1" xmlns="http://www.w3.org/2000/svg" xmlns:xlink="http://www.w3.org/1999/xlink">
<g id="Canvas" fill="none">
<g id="HelloWorld">
<g id="logo-dark">
<rect id="Rectangle" x="1" y="1" width="198" height="198" stroke="black" stroke-width="2"/>
<path id="Text" d="M 72.8828 86L 68.8984 86L 68.8984 69.875L 50.8516 69.875L 50.8516 86L 46.8672 86L 46.8672 51.7344L 50.8516 51.7344L 50.8516 66.3125L 68.8984 66.3125L 68.8984 51.7344L 72.8828 51.7344L 72.8828 86ZM 92.5703 86.4688C 88.7734 86.4688 85.7734 85.3125 83.5703 83C 81.3828 80.6875 80.2891 77.4766 80.2891 73.3672C 80.2891 69.2266 81.3047 65.9375 83.3359 63.5C 85.3828 61.0625 88.125 59.8438 91.5625 59.8438C 94.7812 59.8438 97.3281 60.9062 99.2031 63.0312C 101.078 65.1406 102.016 67.9297 102.016 71.3984L 102.016 73.8594L 84.3203 73.8594C 84.3984 76.875 85.1562 79.1641 86.5938 80.7266C 88.0469 82.2891 90.0859 83.0703 92.7109 83.0703C 95.4766 83.0703 98.2109 82.4922 100.914 81.3359L 100.914 84.8047C 99.5391 85.3984 98.2344 85.8203 97 86.0703C 95.7812 86.3359 94.3047 86.4688 92.5703 86.4688ZM 91.5156 63.1016C 89.4531 63.1016 87.8047 63.7734 86.5703 65.1172C 85.3516 66.4609 84.6328 68.3203 84.4141 70.6953L 97.8438 70.6953C 97.8438 68.2422 97.2969 66.3672 96.2031 65.0703C 95.1094 63.7578 93.5469 63.1016 91.5156 63.1016ZM 112.562 86L 108.672 86L 108.672 49.5312L 112.562 49.5312L 112.562 86ZM 124.703 86L 120.812 86L 120.812 49.5312L 124.703 49.5312L 124.703 86ZM 155.125 73.1328C 155.125 77.3203 154.07 80.5938 151.961 82.9531C 149.852 85.2969 146.938 86.4688 143.219 86.4688C 140.922 86.4688 138.883 85.9297 137.102 84.8516C 135.32 83.7734 133.945 82.2266 132.977 80.2109C 132.008 78.1953 131.523 75.8359 131.523 73.1328C 131.523 68.9453 132.57 65.6875 134.664 63.3594C 136.758 61.0156 139.664 59.8438 143.383 59.8438C 146.977 59.8438 149.828 61.0391 151.938 63.4297C 154.062 65.8203 155.125 69.0547 155.125 73.1328ZM 135.555 73.1328C 135.555 76.4141 136.211 78.9141 137.523 80.6328C 138.836 82.3516 140.766 83.2109 143.312 83.2109C 145.859 83.2109 147.789 82.3594 149.102 80.6562C 150.43 78.9375 151.094 76.4297 151.094 73.1328C 151.094 69.8672 150.43 67.3906 149.102 65.7031C 147.789 64 145.844 63.1484 143.266 63.1484C 140.719 63.1484 138.797 63.9844 137.5 65.6562C 136.203 67.3281 135.555 69.8203 135.555 73.1328ZM 67.3047 151L 63.3672 151L 56.4531 128.055C 56.125 127.039 55.7578 125.758 55.3516 124.211C 54.9453 122.664 54.7344 121.734 54.7188 121.422C 54.375 123.484 53.8281 125.742 53.0781 128.195L 46.375 151L 42.4375 151L 33.3203 116.734L 37.5391 116.734L 42.9531 137.898C 43.7031 140.867 44.25 143.555 44.5938 145.961C 45.0156 143.102 45.6406 140.305 46.4688 137.57L 52.6094 116.734L 56.8281 116.734L 63.2734 137.758C 64.0234 140.18 64.6562 142.914 65.1719 145.961C 65.4688 143.742 66.0312 141.039 66.8594 137.852L 72.25 116.734L 76.4688 116.734L 67.3047 151ZM 103.422 138.133C 103.422 142.32 102.367 145.594 100.258 147.953C 98.1484 150.297 95.2344 151.469 91.5156 151.469C 89.2188 151.469 87.1797 150.93 85.3984 149.852C 83.6172 148.773 82.2422 147.227 81.2734 145.211C 80.3047 143.195 79.8203 140.836 79.8203 138.133C 79.8203 133.945 80.8672 130.688 82.9609 128.359C 85.0547 126.016 87.9609 124.844 91.6797 124.844C 95.2734 124.844 98.125 126.039 100.234 128.43C 102.359 130.82 103.422 134.055 103.422 138.133ZM 83.8516 138.133C 83.8516 141.414 84.5078 143.914 85.8203 145.633C 87.1328 147.352 89.0625 148.211 91.6094 148.211C 94.1562 148.211 96.0859 147.359 97.3984 145.656C 98.7266 143.938 99.3906 141.43 99.3906 138.133C 99.3906 134.867 98.7266 132.391 97.3984 130.703C 96.0859 129 94.1406 128.148 91.5625 128.148C 89.0156 128.148 87.0938 128.984 85.7969 130.656C 84.5 132.328 83.8516 134.82 83.8516 138.133ZM 121.984 124.844C 123.125 124.844 124.148 124.938 125.055 125.125L 124.516 128.734C 123.453 128.5 122.516 128.383 121.703 128.383C 119.625 128.383 117.844 129.227 116.359 130.914C 114.891 132.602 114.156 134.703 114.156 137.219L 114.156 151L 110.266 151L 110.266 125.312L 113.477 125.312L 113.922 130.07L 114.109 130.07C 115.062 128.398 116.211 127.109 117.555 126.203C 118.898 125.297 120.375 124.844 121.984 124.844ZM 133.75 151L 129.859 151L 129.859 114.531L 133.75 114.531L 133.75 151ZM 159.484 147.555L 159.273 147.555C 157.477 150.164 154.789 151.469 151.211 151.469C 147.852 151.469 145.234 150.32 143.359 148.023C 141.5 145.727 140.57 142.461 140.57 138.227C 140.57 133.992 141.508 130.703 143.383 128.359C 145.258 126.016 147.867 124.844 151.211 124.844C 154.695 124.844 157.367 126.109 159.227 128.641L 159.531 128.641L 159.367 126.789L 159.273 124.984L 159.273 114.531L 163.164 114.531L 163.164 151L 160 151L 159.484 147.555ZM 151.703 148.211C 154.359 148.211 156.281 147.492 157.469 146.055C 158.672 144.602 159.273 142.266 159.273 139.047L 159.273 138.227C 159.273 134.586 158.664 131.992 157.445 130.445C 156.242 128.883 154.312 128.102 151.656 128.102C 149.375 128.102 147.625 128.992 146.406 130.773C 145.203 132.539 144.602 135.039 144.602 138.273C 144.602 141.555 145.203 144.031 146.406 145.703C 147.609 147.375 149.375 148.211 151.703 148.211Z" fill="black"/>
</g>
</g>
</g>
</svg>
